<?xml version="1.0" encoding="UTF-8" standalone="no"?>
<!DOCTYPE svg PUBLIC "-//W3C//DTD SVG 20010904//EN"
              "http://www.w3.org/TR/2001/REC-SVG-20010904/DTD/svg10.dtd">

<svg xmlns="http://www.w3.org/2000/svg"
     width="0.853333in" height="0.853333in"
     viewBox="0 0 256 256">
  <path id="Background"
        fill="#363b3f" stroke="none" stroke-width="0"
        d="M 9.00,9.00
           C 9.00,9.00 247.00,9.00 247.00,9.00
             247.00,9.00 247.00,247.00 247.00,247.00
             247.00,247.00 9.00,247.00 9.00,247.00
             9.00,247.00 9.00,9.00 9.00,9.00 Z" />
  <path id="File List"
        fill="white" stroke="none" stroke-width="0"
        d="M 122.00,102.00
           C 122.00,102.00 134.00,102.00 134.00,102.00
             134.00,102.00 134.00,208.00 134.00,208.00
             134.00,208.00 122.00,208.00 122.00,208.00
             122.00,208.00 122.00,102.00 122.00,102.00 Z
           M 38.00,112.00
           C 38.00,112.00 116.00,112.00 116.00,112.00
             116.00,112.00 116.00,127.00 116.00,127.00
             116.00,127.00 38.00,127.00 38.00,127.00
             38.00,127.00 38.00,112.00 38.00,112.00 Z
           M 143.00,112.00
           C 143.00,112.00 176.00,112.00 176.00,112.00
             176.00,112.00 176.00,126.00 176.00,126.00
             176.00,126.00 143.00,126.00 143.00,126.00
             143.00,126.00 143.00,112.00 143.00,112.00 Z
           M 38.00,137.00
           C 38.00,137.00 82.00,137.00 82.00,137.00
             82.00,137.00 82.00,153.00 82.00,153.00
             82.00,153.00 38.00,153.00 38.00,153.00
             38.00,153.00 38.00,137.00 38.00,137.00 Z
           M 143.00,137.00
           C 143.00,137.00 228.00,137.00 228.00,137.00
             228.00,137.00 228.00,153.00 228.00,153.00
             228.00,153.00 143.00,153.00 143.00,153.00
             143.00,153.00 143.00,137.00 143.00,137.00 Z
           M 39.00,162.00
           C 39.00,162.00 112.00,162.00 112.00,162.00
             112.00,162.00 112.00,177.00 112.00,177.00
             112.00,177.00 39.00,177.00 39.00,177.00
             39.00,177.00 39.00,162.00 39.00,162.00 Z
           M 142.00,163.00
           C 142.00,163.00 208.00,163.00 208.00,163.00
             208.00,163.00 208.00,182.00 208.00,182.00
             208.00,182.00 142.00,182.00 142.00,182.00
             142.00,182.00 142.00,163.00 142.00,163.00 Z
           M 40.00,188.00
           C 40.00,188.00 101.00,188.00 101.00,188.00
             101.00,188.00 101.00,204.00 101.00,204.00
             101.00,204.00 40.00,204.00 40.00,204.00
             40.00,204.00 40.00,188.00 40.00,188.00 Z
           M 142.00,188.00
           C 142.00,188.00 199.00,188.00 199.00,188.00
             199.00,188.00 199.00,206.00 199.00,206.00
             199.00,206.00 142.00,206.00 142.00,206.00
             142.00,206.00 142.00,188.00 142.00,188.00 Z" />
  <path id="Border And Text"
        fill="#2a66ac" stroke="none" stroke-width="0"
        d="M 39.41,66.00
           C 39.41,66.00 39.41,59.38 39.41,59.38
             39.41,59.38 48.22,59.38 48.22,59.38
             48.22,59.38 48.22,28.62 48.22,28.62
             48.22,28.62 39.41,28.62 39.41,28.62
             39.41,28.62 39.41,22.00 39.41,22.00
             39.41,22.00 64.59,22.00 64.59,22.00
             64.59,22.00 64.59,28.62 64.59,28.62
             64.59,28.62 55.78,28.62 55.78,28.62
             55.78,28.62 55.78,59.38 55.78,59.38
             55.78,59.38 64.59,59.38 64.59,59.38
             64.59,59.38 64.59,66.00 64.59,66.00
             64.59,66.00 39.41,66.00 39.41,66.00 Z
           M 109.23,66.00
           C 109.23,66.00 109.23,22.00 109.23,22.00
             109.23,22.00 119.02,22.00 119.02,22.00
             119.02,22.00 123.94,40.97 123.94,40.97
             123.94,40.97 128.92,22.00 128.92,22.00
             128.92,22.00 138.77,22.00 138.77,22.00
             138.77,22.00 138.77,66.00 138.77,66.00
             138.77,66.00 131.73,66.00 131.73,66.00
             131.73,66.00 131.73,47.56 131.73,47.56
             131.73,45.04 131.80,42.43 131.94,39.73
             132.08,37.04 132.25,34.42 132.45,31.88
             132.66,29.34 132.88,27.02 133.12,24.94
             133.12,24.94 126.94,46.89 126.94,46.89
             126.94,46.89 120.77,46.89 120.77,46.89
             120.77,46.89 114.81,25.48 114.81,25.48
             115.18,28.25 115.51,31.54 115.81,35.36
             116.11,39.18 116.27,43.26 116.27,47.58
             116.27,47.58 116.27,66.00 116.27,66.00
             116.27,66.00 109.23,66.00 109.23,66.00 Z
           M 196.48,66.50
           C 193.64,66.50 191.18,65.97 189.09,64.91
             187.02,63.84 185.41,62.34 184.27,60.41
             183.13,58.47 182.56,56.18 182.56,53.55
             182.56,53.55 182.56,34.45 182.56,34.45
             182.56,31.82 183.13,29.53 184.27,27.59
             185.41,25.66 187.02,24.16 189.09,23.09
             191.18,22.03 193.64,21.50 196.48,21.50
             199.29,21.50 201.72,22.03 203.80,23.09
             205.88,24.16 207.50,25.66 208.66,27.59
             209.82,29.53 210.41,31.82 210.41,34.47
             210.41,34.47 202.84,34.47 202.84,34.47
             202.84,32.44 202.29,30.88 201.19,29.78
             200.09,28.68 198.52,28.12 196.48,28.12
             194.44,28.12 192.86,28.68 191.73,29.78
             190.62,30.88 190.06,32.44 190.06,34.47
             190.06,34.47 190.06,53.53 190.06,53.53
             190.06,55.56 190.62,57.13 191.73,58.23
             192.86,59.33 194.44,59.88 196.48,59.88
             198.52,59.88 200.09,59.33 201.19,58.23
             202.29,57.13 202.84,55.56 202.84,53.52
             202.84,53.52 210.41,53.52 210.41,53.52
             210.41,56.16 209.82,58.46 208.66,60.41
             207.50,62.34 205.88,63.84 203.80,64.91
             201.72,65.97 199.29,66.50 196.48,66.50 Z
           M 0.00,0.00
           C 0.00,0.00 256.00,0.00 256.00,0.00
             256.00,0.00 256.00,256.00 256.00,256.00
             256.00,256.00 0.00,256.00 0.00,256.00
             0.00,256.00 0.00,0.00 0.00,0.00 Z
           M 247.00,9.00
           C 247.00,9.00 9.00,9.00 9.00,9.00
             9.00,9.00 9.00,247.00 9.00,247.00
             9.00,247.00 247.00,247.00 247.00,247.00
             247.00,247.00 247.00,9.00 247.00,9.00 Z" />
</svg>
